<?xml version="1.0" encoding="utf-8"?>
<!-- Generator: Adobe Illustrator 23.0.2, SVG Export Plug-In . SVG Version: 6.00 Build 0)  -->
<svg version="1.1" id="Layer_1" xmlns="http://www.w3.org/2000/svg" xmlns:xlink="http://www.w3.org/1999/xlink" x="0px" y="0px"
	 viewBox="0 0 30 50" style="enable-background:new 0 0 30 50;" xml:space="preserve">
<style type="text/css">
	.st0{fill:#777777;}
	.st1{fill:#0B632F;}
	.st2{fill:#094C24;}
	.st3{fill:#685D4A;}
	.st4{fill:none;stroke:#685D4A;stroke-width:0.75;stroke-miterlimit:10;}
</style>
<ellipse class="st0" cx="15.4" cy="46.8" rx="8.3" ry="3.2"/>
<g>
	<ellipse class="st1" cx="15" cy="11.8" rx="14.6" ry="6.7"/>
	<path class="st2" d="M29.6,11.8c0,3.7-6.5,6.7-14.6,6.7s-14.6-3-14.6-6.7s6.4,3.9,14.4,3.9S29.6,8.1,29.6,11.8z"/>
	<rect x="14.8" y="14" class="st3" width="1.3" height="33.3"/>
	<path class="st4" d="M15.9,17.7c-4.8,0-8.6-2.7-8.6-6"/>
	<path class="st4" d="M15.6,20.2c-6.3,0-11.4-2.7-11.4-6"/>
	<path class="st4" d="M26,12.9c0,3.7-4.7,6.7-10.5,6.7"/>
	<path class="st4" d="M23.5,11.4c0,3.7-3.8,6.7-8.5,6.7"/>
	<path class="st4" d="M20.7,9.5c0,3.7-2.5,6.7-5.5,6.7"/>
	<path class="st4" d="M17.9,7.7c0,3.7-1.4,6.7-3.2,6.7"/>
	<path class="st4" d="M12.5,7.7c0,3.7,1.4,6.7,3.2,6.7"/>
	<path class="st4" d="M10.3,9.5c0,3.7,2.2,6.7,4.9,6.7"/>
</g>
</svg>
