<?xml version="1.0" encoding="utf-8"?>
<!-- Generator: Adobe Illustrator 23.0.2, SVG Export Plug-In . SVG Version: 6.00 Build 0)  -->
<svg version="1.1" id="Layer_1" xmlns="http://www.w3.org/2000/svg" xmlns:xlink="http://www.w3.org/1999/xlink" x="0px" y="0px"
	 viewBox="0 0 30 50" style="enable-background:new 0 0 30 50;" xml:space="preserve">
<style type="text/css">
	.st0{fill:#86C43C;}
	.st1{fill:#777777;}
	.st2{fill:#685D4A;}
	.st3{fill:#618233;}
	.st4{fill:#C50233;}
	.st5{fill:#401830;}
</style>
<g id="Layer_1">
	<g>
		<ellipse class="st0" cx="15" cy="46.8" rx="8.3" ry="3.2"/>
		<polygon class="st0" points="21.5,32.9 21.5,25.5 19.9,25.5 19.9,32.3 17.4,34.6 17.3,34.6 10.5,28.5 10.5,21.7 8.9,21.7 
			8.9,29.1 8.9,29.1 16.2,35.6 16.2,39.2 13.7,41.4 13.7,41.4 13.7,41.4 13.7,46.4 16,46.4 16,42.2 18.6,40 18.6,40 18.6,35.4 
			21.5,32.9 		"/>
		<g>
			<polygon class="st0" points="16.8,25.4 13,30.1 1.2,27.1 12.1,21.6 			"/>
			<polygon class="st0" points="16.8,25.4 13,30.1 1.2,27.1 12.1,21.6 			"/>
		</g>
		<g>
			<polygon class="st0" points="15,24 9,24.9 2.3,14.8 14,18 			"/>
			<polygon class="st0" points="15,24 9,24.9 2.3,14.8 14,18 			"/>
		</g>
		<g>
			<polygon class="st0" points="12.8,25.4 17.6,21.7 28.3,27.3 16.5,30.2 			"/>
			<polygon class="st0" points="12.8,25.4 17.6,21.7 28.3,27.3 16.5,30.2 			"/>
		</g>
		<g>
			<polygon class="st0" points="14.9,24.1 15.6,18.1 27.2,14.5 20.9,24.9 			"/>
			<polygon class="st0" points="14.9,24.1 15.6,18.1 27.2,14.5 20.9,24.9 			"/>
		</g>
		<g>
			<polygon class="st0" points="14.5,24.1 14.5,29.5 4.2,34.1 8.8,24.1 			"/>
			<polygon class="st0" points="14.5,24.1 14.5,29.5 4.2,34.1 8.8,24.1 			"/>
		</g>
		<ellipse class="st0" cx="23.2" cy="28.4" rx="0.7" ry="0.9"/>
		<g>
			<polygon class="st0" points="15.2,24.1 20.8,24.1 25.4,34.1 15.2,29.5 			"/>
			<polygon class="st0" points="15.2,24.1 20.8,24.1 25.4,34.1 15.2,29.5 			"/>
		</g>
		<g>
			<polygon class="st0" points="15.2,14.4 15.2,28.2 21.3,24.9 			"/>
			<polygon class="st0" points="15.2,14.4 15.2,28.2 21.3,24.9 			"/>
		</g>
		<g>
			<polygon class="st0" points="14.6,14.5 8.4,24.9 14.6,28.2 			"/>
			<polygon class="st0" points="14.6,14.5 8.4,24.9 14.6,28.2 			"/>
		</g>
		<g>
			<polygon class="st0" points="15.2,13.7 15.2,27.5 26.7,21.4 			"/>
			<polygon class="st0" points="15.2,13.7 15.2,27.5 26.7,21.4 			"/>
		</g>
		<polygon class="st0" points="14.6,13.8 3,21.2 14.6,27.5 		"/>
		<ellipse class="st0" cx="4.7" cy="27.9" rx="0.7" ry="0.9"/>
		<ellipse class="st0" cx="9.8" cy="31.8" rx="0.7" ry="0.9"/>
		<ellipse class="st0" cx="11.5" cy="26.1" rx="0.7" ry="0.9"/>
		<ellipse class="st0" cx="6.5" cy="26.9" rx="0.8" ry="1.1"/>
		<ellipse class="st0" cx="22" cy="24.4" rx="0.8" ry="1.1"/>
		<ellipse class="st0" cx="22.2" cy="32.5" rx="0.8" ry="1.1"/>
	</g>
	<g>
		<ellipse class="st1" cx="15" cy="46.8" rx="8.3" ry="3.2"/>
		<polygon class="st2" points="21.5,32.9 21.5,25.5 19.9,25.5 19.9,32.3 17.4,34.6 17.3,34.6 10.5,28.5 10.5,21.7 8.9,21.7 
			8.9,29.1 8.9,29.1 16.2,35.6 16.2,39.2 13.7,41.4 13.7,41.4 13.7,41.4 13.7,46.4 16,46.4 16,42.2 18.6,40 18.6,40 18.6,35.4 
			21.5,32.9 		"/>
		<g>
			<polygon class="st3" points="16.8,25.4 13,30.1 1.2,27.1 12.1,21.6 			"/>
		</g>
		<g>
			<polygon class="st3" points="15,24 9,24.9 2.3,14.8 14,18 			"/>
		</g>
		<g>
			<polygon class="st3" points="12.8,25.4 17.6,21.7 28.3,27.3 16.5,30.2 			"/>
		</g>
		<g>
			<polygon class="st3" points="14.9,24.1 15.6,18.1 27.2,14.5 20.9,24.9 			"/>
		</g>
		<g>
			<polygon class="st0" points="14.5,24.1 14.5,29.5 4.2,34.1 8.8,24.1 			"/>
		</g>
		<ellipse class="st4" cx="23.2" cy="28.4" rx="0.7" ry="0.9"/>
		<g>
			<polygon class="st0" points="15.2,24.1 20.8,24.1 25.4,34.1 15.2,29.5 			"/>
		</g>
		<g>
			<polygon class="st3" points="15.2,14.4 15.2,28.2 21.3,24.9 			"/>
		</g>
		<g>
			<polygon class="st3" points="14.6,14.5 8.4,24.9 14.6,28.2 			"/>
		</g>
		<g>
			<polygon class="st0" points="15.2,13.7 15.2,27.5 26.7,21.4 			"/>
		</g>
		<polygon class="st0" points="14.6,13.8 3,21.2 14.6,27.5 		"/>
		<ellipse class="st5" cx="4.7" cy="27.9" rx="0.7" ry="0.9"/>
		<ellipse class="st4" cx="9.8" cy="31.8" rx="0.7" ry="0.9"/>
		<ellipse class="st4" cx="11.5" cy="26.1" rx="0.7" ry="0.9"/>
		<ellipse class="st4" cx="6.5" cy="26.9" rx="0.8" ry="1.1"/>
		<ellipse class="st5" cx="22" cy="24.4" rx="0.8" ry="1.1"/>
		<ellipse class="st5" cx="22.2" cy="32.5" rx="0.8" ry="1.1"/>
	</g>
</g>
</svg>
