<?xml version="1.0" encoding="utf-8"?>
<!-- Generator: Adobe Illustrator 23.0.2, SVG Export Plug-In . SVG Version: 6.00 Build 0)  -->
<svg version="1.1" id="Layer_1" xmlns="http://www.w3.org/2000/svg" xmlns:xlink="http://www.w3.org/1999/xlink" x="0px" y="0px"
	 viewBox="0 0 30 50" style="enable-background:new 0 0 30 50;" xml:space="preserve">
<style type="text/css">
	.st0{fill:#777777;}
	.st1{fill:#685D4A;}
	.st2{fill:#096A24;}
	.st3{fill:#095624;}
</style>
<ellipse class="st0" cx="15" cy="46.8" rx="8.3" ry="3.2"/>
<rect x="14.2" y="32" class="st1" width="1.5" height="14.6"/>
<path class="st2" d="M15.1,2.1l4.8,29.2c0.5,3.3-0.2,6.7-1.9,8.7l0,0c-1.7,2-4,2-5.7,0s-2.5-5.5-1.9-8.8L15.1,2.1z"/>
<path class="st3" d="M20,31.5L15.2,2.4l0.5,5.2c0,0.1,0,0.2,0,0.3l3.6,23.4c0.5,2.8,0.2,5.7-1,7.7c-0.3,0.5-0.7,1-1.1,1.4l-1.7,1
	c0.9-0.1,1.8-0.3,2.6-1.3l0,0C19.8,38.2,20.6,34.8,20,31.5z"/>
</svg>
