<?xml version="1.0" encoding="utf-8"?>
<!-- Generator: Adobe Illustrator 23.0.2, SVG Export Plug-In . SVG Version: 6.00 Build 0)  -->
<svg version="1.1" id="Layer_1" xmlns="http://www.w3.org/2000/svg" xmlns:xlink="http://www.w3.org/1999/xlink" x="0px" y="0px"
	 viewBox="0 0 30 50" style="enable-background:new 0 0 30 50;" xml:space="preserve">
<style type="text/css">
	.st0{fill:#777777;}
	.st1{fill:#685D4A;}
	.st2{fill:#FFE9CF;}
	.st3{fill:#0C9948;}
	.st4{fill:#86C43C;}
</style>
<ellipse class="st0" cx="15.2" cy="46.8" rx="8.3" ry="3.2"/>
<polygon class="st1" points="22.9,20.8 22.9,16 22.4,16 22.4,20.6 20.9,22.2 20.9,14.7 20.1,14.7 20.1,22.5 15.9,26.8 15.9,13.7 
	14.5,13.7 14.5,24.2 9.9,19.6 9.9,9.5 9,9.5 9,19.3 6.5,16.8 6.5,11.4 6,11.4 6,16.9 6,16.9 6,17 9,20 9,20 9,20 14.5,25.5 
	14.5,46.7 15.9,46.7 15.9,27.8 20.9,22.8 20.9,22.8 "/>
<polygon class="st2" points="22.4,16 22.4,20.6 20.9,22.2 20.9,14.7 20.1,14.7 20.1,22.5 15.9,26.8 15.9,13.7 14.5,13.7 14.5,15.9 
	15.2,15.9 15.2,23.4 14.5,23.4 14.5,24.2 14.4,24.1 14.1,24.4 9.4,19.8 9.8,19.4 9.9,19.6 9.9,9.5 9,9.5 9,19.3 6.5,16.8 6.5,11.4 
	6,11.4 6,16.9 6,16.9 6,17 9,20 9,20 9,20 14.5,25.5 14.5,26.1 15.1,26.1 15.1,30.2 14.5,30.2 14.5,34.6 14.9,34.6 14.9,46.7 
	15.9,46.7 15.9,27.8 15.8,27.8 15.8,27.2 20.2,22.9 20.5,23.2 20.9,22.8 20.9,22.8 22.9,20.8 22.9,20.8 22.9,16 "/>
<rect x="21.4" y="14.4" transform="matrix(0.7071 -0.7071 0.7071 0.7071 -4.4524 20.6814)" class="st3" width="2.7" height="2.7"/>
<polygon class="st4" points="22.7,13.9 24.6,15.7 22.7,16.8 20.8,15.7 "/>
<rect x="17.6" y="10.4" transform="matrix(0.7071 -0.7071 0.7071 0.7071 -3.3948 18.4529)" class="st3" width="5.9" height="5.9"/>
<polygon class="st4" points="20.5,9.1 24.7,13.3 20.5,15.6 16.4,13.3 "/>
<rect x="4.2" y="8.4" transform="matrix(0.7071 -0.7071 0.7071 0.7071 -5.565 7.4766)" class="st3" width="4.1" height="4.1"/>
<polygon class="st4" points="6.3,7.6 3.4,10.5 6.3,12 9.1,10.5 "/>
<rect x="10.7" y="3.9" transform="matrix(0.7071 -0.7071 0.7071 0.7071 -1.4835 13.1925)" class="st3" width="8.9" height="8.9"/>
<polygon class="st4" points="15.2,2 21.5,8.3 15.2,11.8 8.9,8.3 "/>
<rect x="6.6" y="5.8" transform="matrix(0.7071 -0.7071 0.7071 0.7071 -3.3569 9.3019)" class="st3" width="5.9" height="5.9"/>
<polygon class="st4" points="9.5,4.6 5.3,8.7 9.5,11 13.6,8.7 "/>
</svg>
