<?xml version="1.0" encoding="utf-8"?>
<!-- Generator: Adobe Illustrator 23.0.2, SVG Export Plug-In . SVG Version: 6.00 Build 0)  -->
<svg version="1.1" id="Layer_1" xmlns="http://www.w3.org/2000/svg" xmlns:xlink="http://www.w3.org/1999/xlink" x="0px" y="0px"
	 viewBox="0 0 30 50" style="enable-background:new 0 0 30 50;" xml:space="preserve">
<style type="text/css">
	.st0{fill:#777777;}
	.st1{fill:#685D4A;}
	.st2{fill:#6BA100;}
</style>
<ellipse class="st0" cx="15" cy="46.8" rx="8.3" ry="3.2"/>
<path class="st1" d="M27.2,28.8l-1.1-0.2c-0.1,2.2,0.4,5.7-0.6,6.8c0,0-2.9,0.7-3.8,1.2c-0.9,0.5-3.5,2-3.5,2l0.6-1.1l2.3-6.6
	l-1.1-0.9l-2.3,7.3L17,38.3l-1.6,0.7l-1.4-9.4l-1.5-0.2l1.6,9.4l-1.4-0.5L8,30.8l-2-0.6l5.5,8.1c0,0-5.2-1.3-6.1-2.5
	c-0.9-1.2-2.5-8.9-2.5-8.9l-1,0.5c0,0,2.4,10.3,2.8,10.4c0.4,0.1,7.3,2,7.3,2v4.6l-2,1.6h10.1l-2-1.4v-3.8c0,0,2-2,3.9-3
	c2.2-1.1,4.3-1.4,4.6-1.5C27.3,36,27.2,28.8,27.2,28.8z"/>
<polygon class="st2" points="25.1,20.9 15,16.7 4.6,20.9 0.4,29.6 7.6,34.9 22.1,34.9 29.3,29.6 "/>
</svg>
