<?xml version="1.0" encoding="utf-8"?>
<!-- Generator: Adobe Illustrator 23.0.2, SVG Export Plug-In . SVG Version: 6.00 Build 0)  -->
<svg version="1.1" id="Layer_1" xmlns="http://www.w3.org/2000/svg" xmlns:xlink="http://www.w3.org/1999/xlink" x="0px" y="0px"
	 viewBox="0 0 30 50" style="enable-background:new 0 0 30 50;" xml:space="preserve">
<style type="text/css">
	.st0{fill:#777777;}
	.st1{fill:#FFD617;}
	.st2{fill:#685D4A;}
	.st3{fill:none;stroke:#685D4A;stroke-width:0.75;stroke-miterlimit:10;}
</style>
<ellipse class="st0" cx="15" cy="46.8" rx="8.3" ry="3.2"/>
<polygon class="st1" points="27.3,10.3 15.2,4.6 2.8,10.3 1.6,18.8 7.8,25.8 22.3,25.8 28.5,18.8 "/>
<rect x="14" y="31" class="st2" width="2" height="15"/>
<path class="st3" d="M15.6,31.1c0,0-0.1-4.6,1.9-6.6s4-2,4-2s1,0,2-2s2-3,2-3"/>
<path class="st3" d="M20.5,22.5c0,0,1-2,1-3s1-5,2-6s1-1,1-1"/>
<path class="st3" d="M17.5,24.5c0,0,2.5-6.5,0-9c0,0-2-2-2-3"/>
<path class="st3" d="M17,14.9c0,0,2-0.9,2-2.9s1-3,1-3"/>
<path class="st3" d="M13.5,9.5c1,3-1,6-2,7s-1,3-1,3s0,3,2,5c3,3,1.8,6.5,1.8,6.5l0.2,1.5"/>
<path class="st3" d="M10.5,21.5c0,0-1,1-3,0s-2-2-2-2s-1-2-2-2"/>
<path class="st3" d="M10.5,18.5c0,0-3-1-4-4s-2-3-2-3"/>
<path class="st3" d="M14.9,31.6c0,0,0.2-0.4,0.2-3.4s0.6-4.3,0.6-4.3s1.5-2,0.5-3c0,0-1.7-0.7-1.6-2.3"/>
<circle class="st1" cx="21.7" cy="18.5" r="1.5"/>
<circle class="st1" cx="21.1" cy="9.2" r="1.5"/>
<circle class="st1" cx="12.6" cy="9.7" r="1.5"/>
<ellipse class="st1" cx="6.5" cy="14.5" rx="1.5" ry="1.1"/>
<circle class="st1" cx="16" cy="11.3" r="1.5"/>
</svg>
