<?xml version="1.0" encoding="utf-8"?>
<!-- Generator: Adobe Illustrator 23.0.2, SVG Export Plug-In . SVG Version: 6.00 Build 0)  -->
<svg version="1.1" id="Layer_1" xmlns="http://www.w3.org/2000/svg" xmlns:xlink="http://www.w3.org/1999/xlink" x="0px" y="0px"
	 viewBox="0 0 30 50" style="enable-background:new 0 0 30 50;" xml:space="preserve">
<style type="text/css">
	.st0{fill:#777777;}
	.st1{fill:#B245FF;}
	.st2{fill:#685D4A;}
	.st3{fill:#E2CDAF;}
</style>
<ellipse class="st0" cx="15" cy="46.8" rx="8.3" ry="3.2"/>
<polygon class="st1" points="25.3,10.3 15.2,4.6 4.8,10.3 1.6,18.8 7.8,25.8 22.3,25.8 28.5,18.8 "/>
<polygon class="st2" points="21.3,20.8 21.3,26.5 15.4,29.2 15.4,18.1 18.3,15.3 18.3,15.3 18.3,15.3 18.3,15.3 18.3,15.3 
	18.3,11.3 17.8,11.3 17.8,15.3 15.4,17.6 15.4,9 14.9,9 14.9,24 14.9,24 12.2,21.4 12.2,15.4 11.7,15.4 11.7,21.4 11.7,21.4 
	11.7,21.4 11.7,21.4 11.7,21.4 14.4,24 14.4,33.6 9,25.8 9,19.9 8,19.9 8,25.9 13.5,33.7 13.5,46.4 16.4,46.4 16.4,29.6 22.3,26.8 
	22.3,20.8 21.3,20.8 "/>
<g>
	<polygon class="st3" points="18.2,29.5 18.2,29.5 18.2,29.5 	"/>
	<polygon class="st3" points="16.4,29.6 21.1,27.3 20.6,27.3 15.9,29.6 15.9,29.6 15.9,31.4 15.4,31.4 15.4,37.4 15.9,37.4 
		15.9,37.4 15.9,37.4 15.9,37.4 15.9,37.4 15.9,35.6 16.4,35.6 16.4,35.6 16.4,35.6 16.4,35.6 16.4,35.6 16.4,29.6 	"/>
</g>
<polyline class="st3" points="13.4,33.7 9.7,28.3 10.2,28.3 13.9,33.7 13.9,33.7 13.9,33.7 13.9,33.7 13.9,33.7 "/>
<polyline class="st3" points="16.4,46.4 16.4,40.4 15.9,40.4 15.9,40.2 15.5,40.2 15.5,39 15,39 15,40.4 14.6,40.4 14.6,39.7 
	14.1,39.7 14.1,40.4 13.6,40.4 13.6,40.4 13.5,40.4 13.5,46.4 "/>
</svg>
