<?xml version="1.0" encoding="utf-8"?>
<!-- Generator: Adobe Illustrator 23.0.2, SVG Export Plug-In . SVG Version: 6.00 Build 0)  -->
<svg version="1.1" id="Layer_1" xmlns="http://www.w3.org/2000/svg" xmlns:xlink="http://www.w3.org/1999/xlink" x="0px" y="0px"
	 viewBox="0 0 30 50" style="enable-background:new 0 0 30 50;" xml:space="preserve">
<style type="text/css">
	.st0{fill:#FFFFFF;}
	.st1{fill:url(#SVGID_1_);stroke:#003DFF;stroke-width:0.5;stroke-miterlimit:10;}
	.st2{opacity:0.44;fill:url(#SVGID_2_);}
</style>
<rect x="7.2" y="12.9" class="st0" width="14.4" height="14"/>
<radialGradient id="SVGID_1_" cx="15.2378" cy="29.4969" r="18.3167" gradientTransform="matrix(1 0 0 -1 0 50)" gradientUnits="userSpaceOnUse">
	<stop  offset="0" style="stop-color:#0026FF"/>
	<stop  offset="0.4626" style="stop-color:#0E87FF"/>
	<stop  offset="1" style="stop-color:#0029CB"/>
</radialGradient>
<path class="st1" d="M15.1,6.6c-7.7,0-13.9,6.2-13.9,13.9c0,2.1,0.5,4.1,1.3,5.9c0.7,2.2,12.6,23.1,12.6,23.1s12-21.1,12.6-23.2
	c0.8-1.8,1.3-3.8,1.3-5.9C29,12.9,22.8,6.6,15.1,6.6z M15.1,25.8c-3,0-5.4-2.4-5.4-5.4s2.4-5.4,5.4-5.4s5.4,2.4,5.4,5.4
	S18.1,25.8,15.1,25.8z"/>
<linearGradient id="SVGID_2_" gradientUnits="userSpaceOnUse" x1="9.5748" y1="-4.946" x2="16.0787" y2="35.6949" gradientTransform="matrix(1 0 0 -1 0 50)">
	<stop  offset="0" style="stop-color:#0075FF"/>
	<stop  offset="0.8921" style="stop-color:#0EE2FF"/>
</linearGradient>
<path class="st2" d="M15.1,6.6c-7.7,0-13.9,6.2-13.9,13.9c0,2.1,0.5,4.1,1.3,5.9c0.7,2.2,12.6,23.1,12.6,23.1s12-21.1,12.6-23.2
	c0.8-1.8,1.3-3.8,1.3-5.9C29,12.9,22.8,6.6,15.1,6.6z M15.1,25.8c-3,0-5.4-2.4-5.4-5.4s2.4-5.4,5.4-5.4s5.4,2.4,5.4,5.4
	S18.1,25.8,15.1,25.8z"/>
</svg>
