<?xml version="1.0" encoding="utf-8"?>
<!-- Generator: Adobe Illustrator 23.0.2, SVG Export Plug-In . SVG Version: 6.00 Build 0)  -->
<svg version="1.1" id="Layer_1" xmlns="http://www.w3.org/2000/svg" xmlns:xlink="http://www.w3.org/1999/xlink" x="0px" y="0px"
	 viewBox="0 0 30 50" style="enable-background:new 0 0 30 50;" xml:space="preserve">
<style type="text/css">
	.st0{fill:#777777;}
	.st1{fill:#685D4A;}
	.st2{fill:#A0AA6B;}
	.st3{fill:#8E975E;}
	.st4{fill:#909A61;}
</style>
<ellipse class="st0" cx="15" cy="46.8" rx="8.3" ry="3.2"/>
<polygon class="st1" points="6.6,26.4 8.3,24.6 13.8,30.1 13.8,21.4 16.3,21.4 16.3,28.3 21.8,22.8 23.5,24.5 16.3,31.8 16.3,35.1 
	19.2,32.1 21,33.8 16.3,38.5 16.3,46.3 13.8,46.3 13.8,33.6 "/>
<circle class="st2" cx="5.3" cy="22.7" r="4.9"/>
<circle class="st3" cx="21.9" cy="31.9" r="3.7"/>
<circle class="st2" cx="22" cy="19.6" r="5.8"/>
<path class="st4" d="M16.2,19.6c0,3.2,2.6,5.8,5.8,5.8s5.8-2.6,5.8-5.8s-2.6,2.8-5.8,2.8S16.2,16.4,16.2,19.6z"/>
<path class="st4" d="M0.4,22.7c0,2.7,2.2,4.9,4.9,4.9s4.9-2.2,4.9-4.9S8,25.2,5.3,25.2S0.4,19.9,0.4,22.7z"/>
<circle class="st2" cx="15" cy="15.6" r="7.1"/>
<path class="st4" d="M7.9,15.6c0,3.9,3.2,7.1,7.1,7.1s7.1-3.2,7.1-7.1s-3.1,4.1-7,4.1S7.9,11.7,7.9,15.6z"/>
</svg>
