<?xml version="1.0" encoding="utf-8"?>
<!-- Generator: Adobe Illustrator 23.0.2, SVG Export Plug-In . SVG Version: 6.00 Build 0)  -->
<svg version="1.1" id="Layer_1" xmlns="http://www.w3.org/2000/svg" xmlns:xlink="http://www.w3.org/1999/xlink" x="0px" y="0px"
	 viewBox="0 0 30 50" style="enable-background:new 0 0 30 50;" xml:space="preserve">
<style type="text/css">
	.st0{fill:#777777;}
	.st1{fill:#685D4A;}
	.st2{fill:#D6D303;}
	.st3{fill:#D68903;}
	.st4{fill:#0CD320;}
	.st5{fill:#0C9948;}
</style>
<g>
	<path class="st0" d="M15,43.6c4.6,0,8.3,1.4,8.3,3.2c0,1.8-3.7,3.2-8.3,3.2c-4.6,0-8.3-1.4-8.3-3.2C6.7,45,10.4,43.6,15,43.6z"/>
	<path class="st1" d="M12,46.6c0,0,1.8-6.2,2-8c0.2-1.8,0-19.9,0-19.9l-1.4-5.8h4.8L16,18.7c0,0-0.1,18.5,0,19.9s2,8,2,8H12z"/>
	<path class="st2" d="M13.7,17.9l-1.2-4.2c-0.2-0.8,0.4-1.6,1.2-1.6h2.6c0.8,0,1.4,0.8,1.2,1.6l-1.2,4.2c-0.2,0.5-0.6,0.9-1.2,0.9
		h-0.1C14.4,18.8,13.9,18.4,13.7,17.9z"/>
	<path class="st3" d="M13.3,14.7l-1.6-1.8c-0.3-0.3,0.5-0.7,1.5-0.7h3.3c1.1,0,1.8,0.3,1.5,0.7l-1.6,1.8c-0.2,0.2-0.8,0.4-1.5,0.4
		h-0.2C14.1,15.1,13.5,14.9,13.3,14.7z"/>
	<path class="st4" d="M3.8,16.6c1.3-2.4,3.8-4,6.6-4c1.7,0,3.3,0.6,4.5,1.6c-1.3-2.3-3.8-3.9-6.6-3.9c-4.2,0-7.6,3.5-7.6,7.7
		c0,0.9,0.1,1.7,0.4,2.5C1.7,18.8,2.6,17.5,3.8,16.6z"/>
	<path class="st4" d="M26.2,16.5c-1.3-2.3-3.8-3.9-6.6-3.9c-1.7,0-3.3,0.6-4.5,1.5c1.3-2.3,3.8-3.9,6.6-3.9c4.2,0,7.6,3.4,7.6,7.6
		c0,0.8-0.1,1.6-0.4,2.4C28.3,18.7,27.4,17.5,26.2,16.5z"/>
	<path class="st4" d="M12.8,11.6c-1-2.2-2.2-4.4-3.6-4.2c-0.9,0.1-1.5,0.8-2,1.9C7.5,6.9,8.5,5.1,10,4.9c2.1-0.3,4.3,2.8,4.9,6.9
		c0.1,0.8,0.2,1.5,0.1,2.2C14.2,12.7,13.6,12.4,12.8,11.6z"/>
	<path class="st5" d="M12.9,11.7c-0.7-0.4-1.9-4.4-3.5-4.3c-0.9,0-1.6,0.6-2.2,1.8c0.4-1.3,1-2.1,2.2-2.2c1.1,0,2.4,2.6,2.4,2.6
		S12.4,10.5,12.9,11.7z"/>
	<path class="st4" d="M16.9,11.9c0,0,1.9-4.6,3.1-4.5c0.7,0.1,1.4,0.8,1.8,1.8c-0.2-2.3-1.1-3.9-2.3-4.1c-1.8-0.3-3.7,2.8-4.3,6.8
		C15,12.8,15,13.4,15,14.1C15.8,12.7,16.9,11.9,16.9,11.9z"/>
	<path class="st4" d="M15.3,11.5c0,0,0.4-4.8,0.7-4.8c0.2,0,0.3,0.6,0.4,1.5c-0.1-2.2-0.3-3.7-0.5-3.7c-0.4,0-0.8,3.3-0.9,7.3
		c0,0.8,0,1.4,0,2.2C15.1,12.5,15.3,11.5,15.3,11.5z"/>
	<path class="st5" d="M16.8,11.9c0.6-0.4,1.7-4.4,3.1-4.4c0.7,0,1.3,0.6,1.8,1.8c-0.3-1.2-0.8-2.1-1.8-2.1c-0.9,0-2.1,2.6-2.1,2.6
		S17.3,10.8,16.8,11.9z"/>
</g>
</svg>
