<?xml version="1.0" encoding="utf-8"?>
<!-- Generator: Adobe Illustrator 23.0.2, SVG Export Plug-In . SVG Version: 6.00 Build 0)  -->
<svg version="1.1" id="Layer_1" xmlns="http://www.w3.org/2000/svg" xmlns:xlink="http://www.w3.org/1999/xlink" x="0px" y="0px"
	 viewBox="0 0 30 50" style="enable-background:new 0 0 30 50;" xml:space="preserve">
<style type="text/css">
	.st0{fill:#777777;}
	.st1{fill:#685D4A;}
	.st2{fill:#0C9948;}
	.st3{fill:#86C43C;}
</style>
<ellipse class="st0" cx="15" cy="46.8" rx="8.3" ry="3.2"/>
<rect x="14.4" y="40.6" class="st1" width="0.8" height="5.7"/>
<rect x="10.3" y="32.2" transform="matrix(0.7071 -0.7071 0.7071 0.7071 -21.571 21.2051)" class="st2" width="8.9" height="8.9"/>
<polygon class="st3" points="14.8,30.3 21.1,36.6 14.8,40.1 8.5,36.6 "/>
<rect x="11.4" y="28.3" transform="matrix(0.7071 -0.7071 0.7071 0.7071 -18.1072 19.7703)" class="st2" width="6.9" height="6.9"/>
<polygon class="st3" points="14.8,26.9 19.7,31.7 14.8,34.4 10,31.7 "/>
<rect x="12.2" y="25.1" transform="matrix(0.7071 -0.7071 0.7071 0.7071 -15.2731 18.5964)" class="st2" width="5.3" height="5.3"/>
<polygon class="st3" points="14.8,24 18.5,27.7 14.8,29.8 11.1,27.7 "/>
</svg>
